<?xml version="1.0" encoding="UTF-8"?>
<svg id="Capa_2" data-name="Capa 2" xmlns="http://www.w3.org/2000/svg" xmlns:xlink="http://www.w3.org/1999/xlink" viewBox="0 0 572.44 346.35">
  <defs>
    <style>
      .cls-1 {
        fill: none;
        stroke: url(#Degradado_sin_nombre_723);
        stroke-miterlimit: 10;
      }

      .cls-2 {
        fill: url(#Degradado_sin_nombre_13);
      }
    </style>
    <linearGradient id="Degradado_sin_nombre_13" data-name="Degradado sin nombre 13" x1="194.33" y1="-57.93" x2="363.43" y2="397.85" gradientUnits="userSpaceOnUse">
      <stop offset="0" stop-color="#00f5ff"/>
      <stop offset="1" stop-color="#35b8fd"/>
    </linearGradient>
    <linearGradient id="Degradado_sin_nombre_723" data-name="Degradado sin nombre 723" x1="223.89" y1="-51.12" x2="337.7" y2="403.28" gradientUnits="userSpaceOnUse">
      <stop offset="0" stop-color="#c8ffff"/>
      <stop offset=".51" stop-color="#00f5ff"/>
      <stop offset="1" stop-color="#006aff" stop-opacity="0"/>
    </linearGradient>
  </defs>
  <g id="LOGOS">
    <g>
      <path class="cls-2" d="M563.86,345.85h-93.79c-6.93,0-13.49-3.11-17.88-8.48-28.98-35.49-57.96-70.98-86.95-106.47-28.98,35.49-57.96,70.98-86.95,106.47-4.38,5.37-10.95,8.48-17.88,8.48h-93.79c-6.91,0-10.62-8.12-6.1-13.35l129.66-149.69c7.44-8.59,7.52-21.33.18-30.01L172.78,13.78c-4.43-5.24-.71-13.28,6.16-13.28h96.87c6.84,0,13.32,3.03,17.7,8.27,23.91,28.59,47.82,57.19,71.74,85.78,23.91-28.59,47.82-57.19,71.74-85.78,4.38-5.24,10.87-8.27,17.7-8.27h96.87c6.87,0,10.59,8.03,6.16,13.28l-117.59,139.03c-7.34,8.68-7.27,21.42.18,30.01l129.66,149.69c4.53,5.22.81,13.35-6.1,13.35ZM251.29,147.29c-38.61-46.17-77.22-92.34-115.84-138.52-4.38-5.24-10.87-8.27-17.7-8.27H20.88c-6.87,0-10.59,8.03-6.16,13.28l117.59,139.03c7.34,8.68,7.27,21.42-.18,30.01L2.48,332.5c-4.53,5.22-.81,13.35,6.1,13.35h93.79c6.93,0,13.49-3.11,17.88-8.48,43.74-53.56,87.48-107.12,131.22-160.68,7-8.57,6.93-20.91-.17-29.4Z"/>
      <path class="cls-1" d="M563.86,345.85h-93.79c-6.93,0-13.49-3.11-17.88-8.48-28.98-35.49-57.96-70.98-86.95-106.47-28.98,35.49-57.96,70.98-86.95,106.47-4.38,5.37-10.95,8.48-17.88,8.48h-93.79c-6.91,0-10.62-8.12-6.1-13.35l129.66-149.69c7.44-8.59,7.52-21.33.18-30.01L172.78,13.78c-4.43-5.24-.71-13.28,6.16-13.28h96.87c6.84,0,13.32,3.03,17.7,8.27,23.91,28.59,47.82,57.19,71.74,85.78,23.91-28.59,47.82-57.19,71.74-85.78,4.38-5.24,10.87-8.27,17.7-8.27h96.87c6.87,0,10.59,8.03,6.16,13.28l-117.59,139.03c-7.34,8.68-7.27,21.42.18,30.01l129.66,149.69c4.53,5.22.81,13.35-6.1,13.35ZM251.29,147.29c-38.61-46.17-77.22-92.34-115.84-138.52-4.38-5.24-10.87-8.27-17.7-8.27H20.88c-6.87,0-10.59,8.03-6.16,13.28l117.59,139.03c7.34,8.68,7.27,21.42-.18,30.01L2.48,332.5c-4.53,5.22-.81,13.35,6.1,13.35h93.79c6.93,0,13.49-3.11,17.88-8.48,43.74-53.56,87.48-107.12,131.22-160.68,7-8.57,6.93-20.91-.17-29.4Z"/>
    </g>
  </g>
</svg>